<svg xmlns="http://www.w3.org/2000/svg" viewBox="0 0 255 255"><rect x="25.32" y="80.13" width="92.66" height="59.35" style="fill:#f2f2f2"/><rect x="27.97" y="87.58" width="87.36" height="48.39" style="fill:#fff"/><rect x="25.28" y="80.08" width="92.66" height="3.94" style="fill:#36f"/><circle cx="28.21" cy="82.09" r="0.73" style="fill:#fff"/><circle cx="30.98" cy="82.09" r="0.73" style="fill:#fff"/><circle cx="33.75" cy="82.09" r="0.73" style="fill:#fff"/><rect x="35.91" y="92.6" width="22.45" height="38.35" style="fill:#f2f2f2"/><rect x="62.24" y="92.6" width="18.71" height="10.56" style="fill:#36f"/><rect x="62.24" y="106.09" width="18.71" height="11.36" style="fill:#f2f2f2"/><rect x="62.24" y="120.39" width="18.71" height="10.56" style="fill:#f2f2f2"/><rect x="84.95" y="92.6" width="22.45" height="16.71" style="fill:#f2f2f2"/><rect x="84.95" y="114.24" width="22.45" height="16.71" style="fill:#f2f2f2"/><rect x="141.35" y="80.13" width="92.66" height="59.35" style="fill:#f2f2f2"/><rect x="144" y="87.58" width="87.36" height="48.39" style="fill:#fff"/><rect x="141.31" y="80.08" width="92.66" height="3.94" style="fill:#36f"/><circle cx="144.23" cy="82.09" r="0.73" style="fill:#fff"/><circle cx="147" cy="82.09" r="0.73" style="fill:#fff"/><circle cx="149.77" cy="82.09" r="0.73" style="fill:#fff"/><rect x="200.96" y="92.6" width="22.45" height="38.35" style="fill:#f2f2f2"/><rect x="151.96" y="92.6" width="45.28" height="10.56" style="fill:#36f"/><rect x="151.96" y="106.09" width="45.28" height="11.36" style="fill:#f2f2f2"/><rect x="151.96" y="120.39" width="45.28" height="10.56" style="fill:#f2f2f2"/><rect x="128.61" y="34.16" width="0.52" height="28.3" style="fill:#ccc"/><polygon points="180.92 80.06 180.4 80.06 180.4 62.71 77.33 62.71 77.33 80.06 76.81 80.06 76.81 62.2 180.92 62.2 180.92 80.06" style="fill:#ccc"/><path d="M132.68,113.27l-.39-2s-5.74-1.95-6.38,2Z" style="fill:#e6e6e6"/><polygon points="121.67 220.63 117.91 220.63 116.12 206.13 121.67 206.13 121.67 220.63" style="fill:#ffb8b8"/><path d="M122.63,224.28H110.5v-.15a4.72,4.72,0,0,1,4.72-4.72h7.41Z" style="fill:#2f2e41"/><polygon points="134.59 220.63 138.36 220.63 140.15 206.13 134.59 206.13 134.59 220.63" style="fill:#ffb8b8"/><path d="M133.64,219.41H141a4.72,4.72,0,0,1,4.72,4.72v.15H133.64Z" style="fill:#2f2e41"/><polygon points="138.13 121.46 142.43 121.07 145.16 133.94 144.76 145.64 140.47 161.24 134.63 157.73 137.75 141.74 138.13 121.46" style="fill:#2f2e41"/><polygon points="140.85 159.87 139.89 168.06 141.06 187.17 141.06 215.65 133.65 215.25 132.09 185.61 127.8 171.96 124.68 187.56 122.73 216.81 115.13 216.2 115.13 187.46 114.93 166.5 117.66 158.31 140.85 159.87" style="fill:#2f2e41"/><path d="M124.88,113.66s2.73-3.9,7.8-1.17l2.34,3.12,7.41,5.46-1.56,18.33,1.95,23L115.13,162l4.68-23V114.44Z" style="fill:#2f2e41"/><polygon points="139.89 127.54 142.13 154.28 139.31 139.79 139.89 127.54" style="isolation:isolate;opacity:0.25"/><path d="M119.55,167.38a2.87,2.87,0,0,0-.36-4,2.42,2.42,0,0,0-.42-.29l.84-6.52L115.77,155l-1,9.23a2.89,2.89,0,0,0,4.83,3.11Z" style="fill:#ffb8b8"/><rect x="114.74" y="158.12" width="6.24" height="2.73" style="fill:#e6e6e6"/><path d="M123.9,117.75l-4.09-3.31s-2.93-.2-3.32,4.09-.86,22.62-.86,22.62l-1.48,18.33,8.19.39L123.9,140Z" style="fill:#2f2e41"/><circle cx="129.22" cy="101.32" r="7.83" transform="translate(-21.67 166.1) rotate(-61.34)" style="fill:#ffb8b8"/><path d="M128.63,108.23a7.94,7.94,0,0,0,5.2-14.93,9.2,9.2,0,0,0-4.39-.79c-2.34.12-4.62,1-7,.93l-.34.54-1.28-.31-.28,1h-.33a1.93,1.93,0,0,0,1.64,2.71,7.13,7.13,0,0,0,1.48-.32,1.48,1.48,0,0,1,1.41.3c.44.48.25,1.24.16,1.89s.14,1.52.79,1.54c.34,0,.66-.23,1-.16a.8.8,0,0,1,.52.92,3.77,3.77,0,0,1-.46,1.07,4.31,4.31,0,0,0,1.71,5.5" style="fill:#2f2e41"/><path d="M178.2,224.58H79.53a.26.26,0,0,1,0-.52H178.2a.26.26,0,0,1,0,.52Z" style="fill:#ccc"/></svg>