<svg xmlns="http://www.w3.org/2000/svg" viewBox="0 0 255 255"><path d="M208.18,199H47a18.87,18.87,0,0,1-18.43-22.92l7.2-32.72h183.6l7.2,32.72A18.87,18.87,0,0,1,208.18,199ZM36.25,143.9l-7.1,32.29A18.31,18.31,0,0,0,43.1,198a18.58,18.58,0,0,0,3.94.43H208.18a18.32,18.32,0,0,0,18.32-18.32,18.55,18.55,0,0,0-.43-3.93L219,143.9Z" style="fill:#f2f2f2"/><path d="M187.72,73.5l8.45-1.26-1.33-5.88-5.07,2.55L179.31,65a2.12,2.12,0,1,0-1.39,2.81Z" style="fill:#ffb6b6"/><path d="M204.9,69.1c-.65,2.48-15.71,5.28-15.71,4.74,0-1.52,1-4.72.44-5.55-.31-.47,3.94-1.69,3.94-1.69s2.35-.9,5.4-2a5.43,5.43,0,0,1,5.19.71A3.89,3.89,0,0,1,204.9,69.1Z" style="fill:#36f"/><path d="M59.22,172.27H54a4.41,4.41,0,1,0,0,8.81h5.23a4.41,4.41,0,1,0,0-8.81Z" style="fill:#e6e6e6"/><path d="M76,172.27H70.79a4.41,4.41,0,1,0,0,8.81H76a4.41,4.41,0,1,0,0-8.81Z" style="fill:#e6e6e6"/><path d="M92.83,172.27H87.59a4.41,4.41,0,0,0,0,8.81h5.24a4.41,4.41,0,0,0,0-8.81Z" style="fill:#e6e6e6"/><path d="M109.63,172.27h-5.24a4.41,4.41,0,0,0,0,8.81h5.24a4.41,4.41,0,0,0,0-8.81Z" style="fill:#e6e6e6"/><path d="M126.43,172.27h-5.24a4.41,4.41,0,0,0,0,8.81h5.24a4.41,4.41,0,0,0,0-8.81Z" style="fill:#e6e6e6"/><path d="M143.23,172.27H138a4.41,4.41,0,0,0,0,8.81h5.24a4.41,4.41,0,0,0,0-8.81Z" style="fill:#e6e6e6"/><path d="M160,172.27H154.8a4.41,4.41,0,1,0,0,8.81H160a4.41,4.41,0,1,0,0-8.81Z" style="fill:#e6e6e6"/><path d="M176.83,172.27H171.6a4.41,4.41,0,1,0,0,8.81h5.23a4.41,4.41,0,1,0,0-8.81Z" style="fill:#e6e6e6"/><path d="M193.63,172.27H188.4a4.41,4.41,0,1,0,0,8.81h5.23a4.41,4.41,0,1,0,0-8.81Z" style="fill:#e6e6e6"/><path d="M59.22,153.82H54a4.41,4.41,0,1,0,0,8.81h5.23a4.41,4.41,0,1,0,0-8.81Z" style="fill:#e6e6e6"/><path d="M76,153.82H70.79a4.41,4.41,0,1,0,0,8.81H76a4.41,4.41,0,1,0,0-8.81Z" style="fill:#e6e6e6"/><path d="M92.83,153.82H87.59a4.41,4.41,0,0,0,0,8.81h5.24a4.41,4.41,0,0,0,0-8.81Z" style="fill:#36f"/><path d="M109.63,153.82h-5.24a4.41,4.41,0,0,0,0,8.81h5.24a4.41,4.41,0,0,0,0-8.81Z" style="fill:#e6e6e6"/><path d="M126.43,153.82h-5.24a4.41,4.41,0,0,0,0,8.81h5.24a4.41,4.41,0,0,0,0-8.81Z" style="fill:#e6e6e6"/><path d="M143.23,153.82H138a4.41,4.41,0,0,0,0,8.81h5.24a4.41,4.41,0,0,0,0-8.81Z" style="fill:#e6e6e6"/><path d="M160,153.82H154.8a4.41,4.41,0,1,0,0,8.81H160a4.41,4.41,0,1,0,0-8.81Z" style="fill:#e6e6e6"/><path d="M176.83,153.82H171.6a4.41,4.41,0,1,0,0,8.81h5.23a4.41,4.41,0,1,0,0-8.81Z" style="fill:#e6e6e6"/><path d="M193.63,153.82H188.4a4.41,4.41,0,1,0,0,8.81h5.23a4.41,4.41,0,1,0,0-8.81Z" style="fill:#e6e6e6"/><path d="M67.07,163.32H61.84a4.41,4.41,0,1,0,0,8.81h5.23a4.41,4.41,0,1,0,0-8.81Z" style="fill:#e6e6e6"/><path d="M83.87,163.32H78.64a4.41,4.41,0,1,0,0,8.81h5.23a4.41,4.41,0,1,0,0-8.81Z" style="fill:#e6e6e6"/><path d="M100.67,163.32H95.44a4.41,4.41,0,0,0,0,8.81h5.23a4.41,4.41,0,1,0,0-8.81Z" style="fill:#e6e6e6"/><path d="M117.48,163.32h-5.24a4.41,4.41,0,0,0,0,8.81h5.24a4.41,4.41,0,0,0,0-8.81Z" style="fill:#e6e6e6"/><path d="M134.28,163.32H129a4.41,4.41,0,0,0,0,8.81h5.24a4.41,4.41,0,0,0,0-8.81Z" style="fill:#e6e6e6"/><path d="M151.08,163.32h-5.24a4.41,4.41,0,0,0,0,8.81h5.24a4.41,4.41,0,0,0,0-8.81Z" style="fill:#e6e6e6"/><path d="M167.88,163.32h-5.24a4.41,4.41,0,0,0,0,8.81h5.24a4.41,4.41,0,0,0,0-8.81Z" style="fill:#e6e6e6"/><path d="M184.68,163.32h-5.23a4.41,4.41,0,1,0,0,8.81h5.23a4.41,4.41,0,1,0,0-8.81Z" style="fill:#e6e6e6"/><path d="M201.48,163.32h-5.23a4.41,4.41,0,1,0,0,8.81h5.23a4.41,4.41,0,1,0,0-8.81Z" style="fill:#e6e6e6"/><path d="M182.1,143.63H73.37a6.51,6.51,0,0,1-6.5-6.51v-.06c3.85-16.64,3.85-37.51,0-65.66v0a6.5,6.5,0,0,1,6.5-6.5H182.1a6.5,6.5,0,0,1,6.5,6.5v.06a156.22,156.22,0,0,0,0,65.65v.05A6.51,6.51,0,0,1,182.1,143.63Z" style="fill:#fff"/><path d="M182.1,143.63H73.37a6.51,6.51,0,0,1-6.5-6.51v-.06c3.85-16.64,3.85-37.51,0-65.66v0a6.5,6.5,0,0,1,6.5-6.5H182.1a6.5,6.5,0,0,1,6.5,6.5v.06a156.22,156.22,0,0,0,0,65.65v.05A6.51,6.51,0,0,1,182.1,143.63ZM67.42,137.15a6,6,0,0,0,6,5.93H182.1a6,6,0,0,0,6-5.93,156.69,156.69,0,0,1,0-65.82,6,6,0,0,0-6-5.92H73.37a6,6,0,0,0-6,5.93C71.27,99.54,71.27,120.45,67.42,137.15Z" style="fill:#e6e6e6"/><path d="M170.7,84.27H82.84a1.79,1.79,0,0,1,0-3.58H170.7a1.79,1.79,0,1,1,0,3.58Z" style="fill:#e6e6e6"/><path d="M170.7,93H82.84a1.79,1.79,0,0,1,0-3.58H170.7a1.79,1.79,0,1,1,0,3.58Z" style="fill:#e6e6e6"/><path d="M170.7,101.63H82.84a1.79,1.79,0,0,1,0-3.58H170.7a1.79,1.79,0,1,1,0,3.58Z" style="fill:#e6e6e6"/><path d="M170.7,110.3H82.84a1.79,1.79,0,0,1,0-3.58H170.7a1.79,1.79,0,1,1,0,3.58Z" style="fill:#e6e6e6"/><path d="M170.7,119H82.84a1.79,1.79,0,0,1,0-3.58H170.7a1.79,1.79,0,1,1,0,3.58Z" style="fill:#e6e6e6"/><path d="M122.23,127.65H82.84a1.79,1.79,0,1,1,0-3.58h39.39a1.79,1.79,0,0,1,0,3.58Z" style="fill:#36f"/><path d="M127.23,141.29H120a.79.79,0,0,1-.57-.28.87.87,0,0,1-.16-.73l3.41-15.44a.74.74,0,0,1,.85-.62.76.76,0,0,1,.62.6L128,140.25a.87.87,0,0,1-.15.75A.76.76,0,0,1,127.23,141.29Z" style="fill:#e6e6e6"/><path d="M218.35,147.07H37.12a3.72,3.72,0,1,1,0-7.44H218.35a3.72,3.72,0,0,1,0,7.44Z" style="fill:#f2f2f2"/><polygon points="195.4 137.76 192.75 137.76 191.5 127.56 195.4 127.56 195.4 137.76" style="fill:#ffb6b6"/><path d="M196.07,140.32h-8.52v-.11a3.31,3.31,0,0,1,3.32-3.31h0l1.55-1.19,2.91,1.19h.74Z" style="fill:#2f2e41"/><polygon points="219.29 134.32 216.93 135.5 211.25 126.93 214.75 125.19 219.29 134.32" style="fill:#ffb6b6"/><path d="M221,136.31l-7.63,3.81,0-.1a3.32,3.32,0,0,1,1.49-4.45h0l.87-1.75,3.13-.24.66-.33Z" style="fill:#2f2e41"/><path d="M194.23,91.43l14.58.51,1.09,2s1.14,8.28.56,8.87-.88.58-.59,1.61,1,10.8,1,10.8,6,12.49,6.32,13.22.58.44.29.74a10.18,10.18,0,0,0-.73.87H212s-2.56-6.47-4.91-9a14.19,14.19,0,0,1-3.75-8l-2-9.36L197.15,118s-.73,14.19-.58,14.92l.14.73-5.61.06s-.59-1.23-.3-1.67.28-.32-.08-1a4.31,4.31,0,0,1-.21-1.93s2.11-28.76,2.11-29.2a1.45,1.45,0,0,0-.12-.65v-.6l.56-2.11Z" style="fill:#2f2e41"/><path d="M200.52,65a4.56,4.56,0,0,0-1.85,2.65,25.53,25.53,0,0,0-1.08,6l-.34,6.11A25.07,25.07,0,0,1,194,91a2,2,0,0,0,.78,2.66,2.11,2.11,0,0,0,.45.18c5.29,1.39,15.3-.35,15.3-.35s.42-.14,0-.57a16,16,0,0,1-1.39-2.56l1.14-7.47,1.42-15.06a13.7,13.7,0,0,0-5.13-3.39l-.89-1.6-4.43.36Z" style="fill:#36f"/><circle cx="203.33" cy="57.65" r="4.26" style="fill:#ffb8b8"/><path d="M208.57,57.4a7.36,7.36,0,0,1-1,2.42,1.68,1.68,0,0,1-.55.63.6.6,0,0,1-.77-.1l-.1-.08a2.16,2.16,0,0,0,.53-.47.73.73,0,0,0,.15-.67.48.48,0,0,0-.57-.3c-.24.1-.4.46-.66.41s-.25-.33-.25-.55c0-1.14-.55-2.76-1-2.71a3.67,3.67,0,0,1-1.28-.17,3.25,3.25,0,0,0-1.28-.17l-.09,0a2.67,2.67,0,0,0-.28-.62,3.29,3.29,0,0,1,0,.7,7.7,7.7,0,0,1-1.06.34c-.4.05-1.26,1.23-1.3,1.11a3.16,3.16,0,0,0-.29-.62,3.26,3.26,0,0,1,0,.7v0c-.19-.25-.31-.56-.24-.33a3.16,3.16,0,0,1,.62-3.72,1.84,1.84,0,0,1,.75-.6,1,1,0,0,1,.94.09,3.14,3.14,0,0,1,3.11-.67c1.05.37,1.86.59,2,1.69a2.36,2.36,0,0,1,2.25,1.09A3.55,3.55,0,0,1,208.57,57.4Z" style="fill:#2f2e41"/><path d="M213.12,85.06V76.51l-6,.45,1.77,5.39-5.44,9.76A2.12,2.12,0,1,0,206,93.9Z" style="fill:#ffb6b6"/><path d="M211.32,67.42c2.35,1,2.88,16.32,2.35,16.23-1.5-.25-4.52-1.68-5.42-1.25-.52.24-1.08-4.15-1.08-4.15s-.55-2.46-1.19-5.64a5.45,5.45,0,0,1,1.48-5A3.86,3.86,0,0,1,211.32,67.42Z" style="fill:#36f"/><path d="M66,161.86a1.44,1.44,0,0,1-.09-2,1.54,1.54,0,0,1,.19-.17l-1.62-4.87,2.57.69L68.18,160a1.44,1.44,0,0,1-.4,2A1.46,1.46,0,0,1,66,161.86Z" style="fill:#ffb6b6"/><path d="M70.65,135.42c.43.24,3-.36,3.45-.19-.27,1.66,1.21,1-.4,3.22a57.93,57.93,0,0,0-5.57,11.17c-.74,2.45,0,5.89-.12,7a11.36,11.36,0,0,0,0,2,20.64,20.64,0,0,1-2.61.05,69.37,69.37,0,0,1-2-8.54C63,148.11,63,149,63.16,148s.25-.29,0-1.29.63-2.26,1.4-3c.34-1,.77-1.85,1.1-2.8C68.11,138.78,68.27,137.56,70.65,135.42Z" style="fill:#3f3d56"/><path d="M93.28,158.77a1.44,1.44,0,0,1-1.64-1.22,2.09,2.09,0,0,1,0-.25l-4.78-1.85L89,153.9l4.21,2a1.45,1.45,0,0,1,0,2.88Z" style="fill:#ffb6b6"/><path d="M75.83,138.37c.46-.18,1.6-2.51,2-2.78,1.11,1.26,1.57-.28,2.24,2.35a57.8,57.8,0,0,0,5.07,11.41c1.43,2.12,4.55,3.75,5.37,4.57a12,12,0,0,0,1.57,1.27,21.13,21.13,0,0,1-1.62,2.05,70.33,70.33,0,0,1-7.86-3.88c-1.89-1-1.22-.43-1.9-1.24s-.06-.37-1-.85-1.34-1.92-1.4-3c-.53-.87-1-1.77-1.47-2.63C76.81,142.47,76,141.57,75.83,138.37Z" style="fill:#3f3d56"/><polygon points="79.43 152.82 81.81 163.48 66.52 162.53 70.68 152.06 79.43 152.82" style="fill:#ffb6b6"/><polygon points="76.88 201.99 78.6 201.99 79.42 195.37 76.88 195.37 76.88 201.99" style="fill:#ffb6b6"/><path d="M76.3,201.15,79,201v1.17l2.59,1.78a.73.73,0,0,1-.42,1.33H78l-.56-1.15-.21,1.15H76Z" style="fill:#2f2e41"/><polygon points="60.64 201.14 62.32 201.5 64.52 195.2 62.04 194.66 60.64 201.14" style="fill:#ffb6b6"/><path d="M60.25,200.19l2.69.41-.25,1.14L64.84,204a.73.73,0,0,1-.69,1.21L61,204.55l-.3-1.24-.45,1.08-1.2-.26Z" style="fill:#2f2e41"/><path d="M82.21,172.39C81,179,80.7,181.88,80.7,181.88s.9,1.05.3,1.65,0,1.81,0,1.81L79.64,200l-1.09-.17-2.63-.43-1-.15.61-13.71s-.61-1.2-.3-1.51-.31-2.1-.31-2.1l-.75-14.31-4.67,15.66a.85.85,0,0,1,0,1.06A14.82,14.82,0,0,0,68.2,187l-2.78,9.72-.24.82-1.45-.27-1.57-.3-.29-.05-.52-.1-.33-.06-.11,0-.55-.1.17-.74.08-.38L63,185.08l.06-.24,0-.25a1.23,1.23,0,0,1,.15-1.21,1.17,1.17,0,0,0,.31-1l0-.05a.62.62,0,0,1-.11-.25.82.82,0,0,1,.3-.76,1.25,1.25,0,0,0,.21-.3,10.59,10.59,0,0,0,.69-2.71s.41-14.55,1.74-16.78c.07-.11,1.49-2.34,1.56-2.39,1.51-.9,13.24.34,13.24.34s.71,1.91.74,2.11A26.73,26.73,0,0,1,82.21,172.39Z" style="fill:#2f2e41"/><path d="M78.64,137.33s.25-1.32-2.18-3.76a10.18,10.18,0,0,0-4.31,0c-3.59,4.74-2.94,3.9-3.88,6.55A3.76,3.76,0,0,0,68,142a135.25,135.25,0,0,1,1,13.77c-.14.58-1.15,1.3-.14,1.3s14-.23,13.67-.66S78.64,137.33,78.64,137.33Z" style="fill:#3f3d56"/><circle cx="74.6" cy="128.63" r="4.11" style="fill:#ffb6b6"/><path d="M71.11,130.18a3.31,3.31,0,0,1-.58,1.37,5.48,5.48,0,0,0,0,5.09,19.21,19.21,0,0,1,1.07,1.87,2.14,2.14,0,0,1,0,1.8c-.72-.7-1.07-.33-1.89-.94.32.91,0,.93.37,1.84l-4.17,1.19a5,5,0,0,0,1.44-5.92c-.51-1.09-1.42-2-1.75-3.14a3.42,3.42,0,0,1,2.34-4.23,3.45,3.45,0,0,1,2.35.17C70.69,129.15,71.13,129.69,71.11,130.18Z" style="fill:#2f2e41"/><path d="M76.28,124c-.56-1.21-2-1-3.34-.81a4.12,4.12,0,0,0-3.07,2.29,5.61,5.61,0,0,0-.3,3.89,4.27,4.27,0,0,0,1.34,2.27c.7.56,4,1.88,4.25.74-.34,1.49-1.23,2.34-.21,3.48.52-1.58,2.75-3.08,3.27-4.66.08-.24-.24-3-.16-3.27.16-.5.33-1,.45-1.52a2.32,2.32,0,0,0-.19-1.92c-.4-.52-1.41-.55-1.62.09" style="fill:#2f2e41"/><path d="M75.61,129.05l-.17-1.12c.12-1.39-.08-3.61.84-3.91l.56.56C76.48,124.69,75.81,126.78,75.61,129.05Z" style="fill:#ff6584"/><path d="M115.69,205.31a.32.32,0,0,1-.32.33H38.17a.33.33,0,0,1,0-.66h77.19a.33.33,0,0,1,.33.33Z" style="fill:#ccc"/><path d="M156.1,184.94H99.37a4.41,4.41,0,0,0,0,8.82H156.1a4.41,4.41,0,0,0,0-8.82Z" style="fill:#e6e6e6"/></svg>