<svg xmlns="http://www.w3.org/2000/svg" viewBox="0 0 255 255"><path d="M74.31,155.53A2.77,2.77,0,0,1,72.69,152a3.55,3.55,0,0,1,.21-.44L66.55,144l5.08-.6,5.25,7.23a2.78,2.78,0,0,1-2.57,4.89Z" style="fill:#ffb6b6"/><polygon points="48.15 225.97 51.52 225.97 53.13 212.94 48.15 212.94 48.15 225.97" style="fill:#ffb6b6"/><path d="M47.29,224.87h1L52,223.36l2,1.51h0a4.24,4.24,0,0,1,4.24,4.23v.14H47.29Z" style="fill:#2f2e41"/><polygon points="61.23 223.84 64.53 224.59 68.96 212.23 64.1 211.14 61.23 223.84" style="fill:#ffb6b6"/><path d="M60.64,222.58l.92.21,4-.66,1.6,1.91h0a4.23,4.23,0,0,1,3.2,5.07l0,.13-10.62-2.4Z" style="fill:#2f2e41"/><path d="M42,159,45,193.18S43.88,213.72,47.57,221h5.35l2.65-29.64.34-19.9L67.38,188.2l-7.31,32.27,6.59.58,11.87-35-13-32.87Z" style="fill:#2f2e41"/><circle cx="45.16" cy="96.62" r="7.87" style="fill:#ffb8b8"/><path d="M61.7,112l-9.15-2.77-1.19-3.66-9.81,1.59-2.09,3.57L32.71,117l7.91,35.74-.24,7.81s5.06,2.28,27-3c.27-.06-.28-.33-.28-.33Z" style="fill:#3f3d56"/><path d="M70.38,151.4,59.66,137l-3-25.45.09,0a5.55,5.55,0,0,1,8,4.78l.64,15.73L76,146.12Z" style="fill:#3f3d56"/><path d="M37,101.09l-.17-.23-.06.14Z" style="fill:#2f2e41"/><path d="M53,90.86a5.09,5.09,0,0,0-2.63-2.54,4.82,4.82,0,0,0-3.6,0,7.29,7.29,0,0,0-3.41-1.25,3.85,3.85,0,0,0-3.26,1.38,5.19,5.19,0,0,1-.57.74,2.78,2.78,0,0,1-2.32.37l1.08.92L37,90.83l1.53.93a4.77,4.77,0,0,0-2,4.57,9.59,9.59,0,0,0,1.93,4.53,6.13,6.13,0,0,0,.29-2.68,3,3,0,0,1,.93-2.59,3.06,3.06,0,0,1,1.82-.37,80.72,80.72,0,0,1,9.45.59,2.73,2.73,0,0,1,1.21.35,3,3,0,0,1,.9,2.3,17.06,17.06,0,0,0,.53-4.33A8,8,0,0,0,53,90.86Z" style="fill:#2f2e41"/><circle cx="52.22" cy="174.06" r="12.39" style="fill:#f0f0f0"/><path d="M52.22,161.39a13.5,13.5,0,0,0-1.9.14c-.32.05-.64.11-1,.18a12.66,12.66,0,0,0-5.36,22c.21.18.42.35.65.52a12.67,12.67,0,1,0,7.56-22.82Zm0,24.79a12.15,12.15,0,0,1-7.16-2.35c-.22-.17-.44-.34-.65-.52a12.11,12.11,0,0,1,5.4-21.13q.46-.09.93-.15a12.25,12.25,0,0,1,1.48-.09,12.12,12.12,0,0,1,0,24.24Z" style="fill:#3f3d56"/><path d="M58.28,171.58H46.16a.83.83,0,0,1-.82-.83h0a.82.82,0,0,1,.82-.82H58.28a.83.83,0,0,1,.83.82h0A.83.83,0,0,1,58.28,171.58Z" style="fill:#36f"/><path d="M58.28,174.88H46.16a.82.82,0,0,1-.82-.82h0a.83.83,0,0,1,.82-.83H58.28a.83.83,0,0,1,.83.83h0A.83.83,0,0,1,58.28,174.88Z" style="fill:#36f"/><path d="M58.28,178.19H46.16a.83.83,0,0,1-.82-.83h0a.82.82,0,0,1,.82-.82H58.28a.83.83,0,0,1,.83.82h0A.83.83,0,0,1,58.28,178.19Z" style="fill:#36f"/><path d="M53,165.18A2.78,2.78,0,0,1,50.7,162a3.59,3.59,0,0,1,.12-.47l-7.75-6.07,4.84-1.62,6.62,6A2.78,2.78,0,0,1,53,165.18Z" style="fill:#ffb6b6"/><path d="M37.49,116.91l-4.78.1a9.09,9.09,0,0,0-2.93,6.78v22.56l17.91,15,5.8-5.61L40.15,141.19Z" style="fill:#3f3d56"/><rect x="74.2" y="63.22" width="177.33" height="113.57" style="fill:#e6e6e6"/><rect x="79.27" y="77.46" width="167.19" height="92.61" style="fill:#fff"/><rect x="74.12" y="63.12" width="177.33" height="7.53" style="fill:#36f"/><circle cx="79.72" cy="66.97" r="1.4" style="fill:#fff"/><circle cx="85.02" cy="66.97" r="1.4" style="fill:#fff"/><circle cx="90.32" cy="66.97" r="1.4" style="fill:#fff"/><rect x="144.84" y="87.07" width="35.8" height="20.2" style="fill:#36f"/><rect x="144.84" y="112.9" width="35.8" height="21.74" style="fill:#e6e6e6"/><rect x="188.31" y="87.07" width="42.96" height="31.98" style="fill:#e6e6e6"/><rect x="188.31" y="128.48" width="42.96" height="31.98" style="fill:#36f"/><rect x="94.66" y="87.07" width="42.96" height="31.98" style="fill:#e6e6e6"/><polygon points="174.78 50.02 162.54 96.06 163.1 96.2 175.23 50.6 174.78 50.02" style="fill:#3f3d56"/><polygon points="210.11 144.2 197.98 189.81 198.43 190.39 210.67 144.35 210.11 144.2" style="fill:#3f3d56"/><path d="M136.78,138.43H95.47a1,1,0,1,1,0-1.93h41.31a1,1,0,0,1,0,1.93Z" style="fill:#e6e6e6"/><path d="M136.78,132.92H95.47a1,1,0,1,1,0-1.93h41.31a1,1,0,0,1,0,1.93Z" style="fill:#e6e6e6"/><path d="M136.78,143.94H95.47a1,1,0,1,1,0-1.93h41.31a1,1,0,0,1,0,1.93Z" style="fill:#e6e6e6"/><path d="M136.78,149.45H95.47a1,1,0,1,1,0-1.93h41.31a1,1,0,0,1,0,1.93Z" style="fill:#e6e6e6"/><path d="M136.78,155H95.47a1,1,0,1,1,0-1.93h41.31a1,1,0,0,1,0,1.93Z" style="fill:#e6e6e6"/><path d="M136.78,160.46H95.47a1,1,0,1,1,0-1.92h41.31a1,1,0,0,1,0,1.92Z" style="fill:#e6e6e6"/><path d="M179.81,143.94H145.66a1,1,0,0,1,0-1.93h34.15a1,1,0,1,1,0,1.93Z" style="fill:#e6e6e6"/><path d="M179.81,149.45H145.66a1,1,0,0,1,0-1.93h34.15a1,1,0,1,1,0,1.93Z" style="fill:#e6e6e6"/><path d="M179.81,155H145.66a1,1,0,0,1,0-1.93h34.15a1,1,0,1,1,0,1.93Z" style="fill:#e6e6e6"/><path d="M179.81,160.46H145.66a1,1,0,0,1,0-1.92h34.15a1,1,0,1,1,0,1.92Z" style="fill:#e6e6e6"/><circle cx="175.61" cy="40.75" r="12.39" style="fill:#f0f0f0"/><path d="M175.61,28.08a12.16,12.16,0,0,0-1.9.15,7.58,7.58,0,0,0-1,.18,12.67,12.67,0,0,0-5.37,22c.22.18.43.35.65.51a12.67,12.67,0,1,0,7.57-22.82Zm0,24.79a12.08,12.08,0,0,1-7.16-2.35,7.79,7.79,0,0,1-.65-.52,12.11,12.11,0,0,1,5.4-21.12c.31-.07.62-.12.93-.16a12.25,12.25,0,0,1,1.48-.09,12.12,12.12,0,0,1,0,24.24Z" style="fill:#3f3d56"/><path d="M181.67,38.27H169.55a.82.82,0,0,1-.82-.82h0a.83.83,0,0,1,.82-.83h12.12a.83.83,0,0,1,.83.83h0A.83.83,0,0,1,181.67,38.27Z" style="fill:#36f"/><path d="M181.67,41.58H169.55a.83.83,0,0,1-.82-.83h0a.82.82,0,0,1,.82-.82h12.12a.83.83,0,0,1,.83.82h0A.83.83,0,0,1,181.67,41.58Z" style="fill:#36f"/><path d="M181.67,44.88H169.55a.82.82,0,0,1-.82-.82h0a.83.83,0,0,1,.82-.83h12.12a.83.83,0,0,1,.83.83h0A.83.83,0,0,1,181.67,44.88Z" style="fill:#36f"/><circle cx="196.54" cy="201.05" r="12.39" style="fill:#f0f0f0"/><path d="M196.54,188.38a13.5,13.5,0,0,0-1.9.14c-.32,0-.63.11-.95.18a12.66,12.66,0,0,0-5.36,22,8.22,8.22,0,0,0,.65.52,12.67,12.67,0,1,0,7.56-22.82Zm0,24.79a12.08,12.08,0,0,1-7.16-2.35c-.22-.17-.44-.34-.65-.52a12.11,12.11,0,0,1,5.4-21.13l.93-.15a12.25,12.25,0,0,1,1.48-.09,12.12,12.12,0,0,1,0,24.24Z" style="fill:#3f3d56"/><path d="M202.6,198.57H190.49a.83.83,0,0,1-.83-.83h0a.83.83,0,0,1,.83-.82H202.6a.83.83,0,0,1,.83.82h0A.83.83,0,0,1,202.6,198.57Z" style="fill:#36f"/><path d="M202.6,201.87H190.49a.83.83,0,0,1-.83-.82h0a.83.83,0,0,1,.83-.83H202.6a.83.83,0,0,1,.83.83h0A.83.83,0,0,1,202.6,201.87Z" style="fill:#36f"/><path d="M202.6,205.18H190.49a.83.83,0,0,1-.83-.83h0a.83.83,0,0,1,.83-.82H202.6a.83.83,0,0,1,.83.82h0A.83.83,0,0,1,202.6,205.18Z" style="fill:#36f"/><path d="M99.39,229.47H4a.33.33,0,0,1-.33-.33.33.33,0,0,1,.33-.33H99.39a.33.33,0,0,1,0,.66Z" style="fill:#cacaca"/></svg>