<svg xmlns="http://www.w3.org/2000/svg" viewBox="0 0 255 255"><path d="M195.25,54v.05l0,.08a2.1,2.1,0,0,0-.08.56,1.93,1.93,0,0,0,0,.24,1.54,1.54,0,0,0,0,.3,1.8,1.8,0,0,0,.1.33.47.47,0,0,0,.06.15A2.35,2.35,0,0,0,197,57.06h0l.11,0a2,2,0,0,0,.6,0h0a2.28,2.28,0,0,0,1.34-.54c.23-.19.25-.39.54-.3.92.28,1.53-1.23,1.07-2.06v-.09c0-.58-.92-.73-1.42-1h0a.44.44,0,0,1-.54.32.46.46,0,0,1-.3-.26c-.09-.22-.17-.45-.25-.68C197.13,51.77,194.53,52.87,195.25,54Z" style="fill:#2f2e41"/><path d="M189.14,59.26c-.13.31-4.21.28-4.4.56-1.45,2.12,3.76,11.15,2.31,13.28l-.2.24a10.05,10.05,0,0,0,1.36-.76c0-.87.07-1.75.11-2.62a7.33,7.33,0,0,1,1,1.82,12.73,12.73,0,0,1,2-1.54,9,9,0,0,1,2-1.64Z" style="fill:#2f2e41"/><path d="M192.11,76.67a3.38,3.38,0,0,0-4.68,1,3.67,3.67,0,0,0-.45,1l-6.21,16.18L170.1,88.79A3.29,3.29,0,1,0,168,92.08c2.24,2.4,12,12.24,16,8.39,3.39-3.23,8.28-15.75,9.46-20.07A3.39,3.39,0,0,0,192.11,76.67Z" style="fill:#a0616a"/><path d="M143.67,87.5a37.41,37.41,0,0,1-1.34-23.9,1.83,1.83,0,0,1,1.72-1.93l18.06-1A1.82,1.82,0,0,1,164,62.38l1.35,23.9a1.84,1.84,0,0,1-1.73,1.93l-18.05,1A1.84,1.84,0,0,1,143.67,87.5Z" style="fill:#e6e6e6"/><path d="M144.65,80.2c-2-3.76-1.75-9.33-.86-15.36A1.71,1.71,0,0,1,145.4,63l15.52-.87a1.71,1.71,0,0,1,1.8,1.61l1.2,21.28a1.71,1.71,0,0,1-1.62,1.8l-9.61.54A7.63,7.63,0,0,1,144.65,80.2Z" style="fill:#fff"/><circle cx="152.47" cy="81.5" r="1.6" style="fill:#36f"/><path d="M156.86,66.84c-.49-.82-1.62-.89-2.57-.87a11,11,0,0,0-2.9.33A3.71,3.71,0,0,0,149.11,68a5,5,0,0,0-.06,3.52,23.47,23.47,0,0,0,2.67,6.35l.7.47A14.39,14.39,0,0,0,157.1,68.2,2.45,2.45,0,0,0,156.86,66.84Z" style="fill:#36f"/><path d="M54.6,149.16c-5.87-21.92-4.93-46.48,0-72.58A2.44,2.44,0,0,1,57,74.14h72.55A2.44,2.44,0,0,1,132,76.58v72.58a2.44,2.44,0,0,1-2.44,2.44H57A2.44,2.44,0,0,1,54.6,149.16Z" style="fill:#f2f2f2"/><path d="M55.06,131a247.64,247.64,0,0,1,1.18-52.77,2.45,2.45,0,0,1,2.44-2.44H128a2.43,2.43,0,0,1,2.43,2.44v69.29A2.43,2.43,0,0,1,128,150H75.71A20.71,20.71,0,0,1,55.06,131Z" style="fill:#fff"/><path d="M99.41,89.47H70.25a.63.63,0,1,1,0-1.26H99.41a.63.63,0,0,1,0,1.26Z" style="fill:#36f"/><path d="M114.17,95.22H70.25a.63.63,0,1,1,0-1.26h43.92a.63.63,0,0,1,.63.63A.64.64,0,0,1,114.17,95.22Z" style="fill:#f2f2f2"/><path d="M114.17,99.71H70.25a.63.63,0,1,0,0,1.25h43.92a.63.63,0,1,0,0-1.25Z" style="fill:#f2f2f2"/><path d="M114.17,106.71H70.25a.63.63,0,1,1,0-1.25h43.92a.63.63,0,1,1,0,1.25Z" style="fill:#f2f2f2"/><path d="M114.17,112.46H70.25a.63.63,0,1,1,0-1.25h43.92a.63.63,0,1,1,0,1.25Z" style="fill:#f2f2f2"/><path d="M114.17,118.25H70.25a.63.63,0,1,1,0-1.26h43.92a.63.63,0,1,1,0,1.26Z" style="fill:#f2f2f2"/><path d="M114.17,124H70.25a.63.63,0,0,1-.63-.63.63.63,0,0,1,.63-.63h43.92a.63.63,0,0,1,.63.63A.63.63,0,0,1,114.17,124Z" style="fill:#f2f2f2"/><path d="M114.17,129.81H70.25a.62.62,0,0,1-.63-.62.63.63,0,0,1,.63-.63h43.92a.63.63,0,1,1,0,1.25Z" style="fill:#f2f2f2"/><path d="M114.17,135.6H70.25a.63.63,0,0,1,0-1.26h43.92a.63.63,0,0,1,0,1.26Z" style="fill:#f2f2f2"/><path d="M103.75,97.3A5.24,5.24,0,0,0,98,98.56a3.85,3.85,0,0,0,.18,5.25c1.88,1.63,4.48,1,6.53.11,1.88-.84,3.95-2.21,3.92-4.52a3.69,3.69,0,0,0-5-3.45c-.49.18-.28,1,.22.8a2.91,2.91,0,0,1,3.75,1.68,2.82,2.82,0,0,1,.15.57c.29,1.92-1.35,3.16-2.87,3.92-1.67.83-3.8,1.63-5.58.67a2.88,2.88,0,0,1-1-4.1c1.06-1.78,3.42-2,5.21-1.39.5.18.72-.62.22-.8Z" style="fill:#36f"/><path d="M77.86,108.87a5.24,5.24,0,0,0-5.78,1.26,3.85,3.85,0,0,0,.18,5.25c1.88,1.63,4.48,1,6.54.11,1.87-.85,3.94-2.21,3.91-4.52a3.69,3.69,0,0,0-5-3.45c-.49.18-.28,1,.22.79A2.91,2.91,0,0,1,81.7,110a2.82,2.82,0,0,1,.15.57c.29,1.92-1.35,3.16-2.87,3.92-1.67.83-3.8,1.62-5.58.67a2.89,2.89,0,0,1-1-4.11c1.06-1.77,3.42-2,5.21-1.38.5.18.72-.62.22-.8Z" style="fill:#e6e6e6"/><path d="M103.48,132a5.26,5.26,0,0,0-5.79,1.26,3.83,3.83,0,0,0,.19,5.24c1.88,1.64,4.48,1,6.53.11,1.88-.84,3.94-2.2,3.91-4.51a3.73,3.73,0,0,0-1.58-3,3.81,3.81,0,0,0-3.39-.43c-.5.18-.28,1,.22.8a2.89,2.89,0,0,1,3.74,1.68,2.94,2.94,0,0,1,.16.58c.29,1.92-1.35,3.16-2.87,3.91s-3.8,1.63-5.59.68a2.88,2.88,0,0,1-1-4.11c1-1.77,3.42-2,5.21-1.39.5.18.71-.62.22-.79Z" style="fill:#e6e6e6"/><path d="M102.54,139.82a19.14,19.14,0,0,0,5.4,10.6,18.84,18.84,0,0,0,16.93,5c.51-.11.45-.93-.07-.83a18.24,18.24,0,0,1-11-1.12,18,18,0,0,1-10.48-13.69c-.08-.52-.9-.45-.82.07Z" style="fill:#e6e6e6"/><path d="M126.11,160.7l6.15-3.54a.41.41,0,0,0,.1-.57.27.27,0,0,0-.07-.08L126,151.93c-.43-.31-1,.32-.53.63l6.33,4.58,0-.66L125.64,160c-.46.27,0,.95.47.68Z" style="fill:#e6e6e6"/><path d="M107.77,95.53a19.11,19.11,0,0,1,5.4-10.59,18.79,18.79,0,0,1,16.93-5c.52.11.45.93-.07.82a18.2,18.2,0,0,0-11,1.13A18,18,0,0,0,108.6,95.61c-.08.52-.91.45-.83-.08Z" style="fill:#3f3d56"/><path d="M131.35,74.65l6.14,3.54a.41.41,0,0,1,.1.58l-.07.08-6.32,4.58c-.43.31-1-.32-.54-.63L137,78.21l0,.66-6.14-3.54C130.42,75.07,130.89,74.39,131.35,74.65Z" style="fill:#3f3d56"/><path d="M75,117.79a19.11,19.11,0,0,1-5.4,10.59,18.79,18.79,0,0,1-16.93,5c-.51-.1-.45-.93.07-.82a18.2,18.2,0,0,0,10.95-1.13,18,18,0,0,0,10.48-13.68c.08-.53.91-.46.83.07Z" style="fill:#e6e6e6"/><path d="M51.42,138.67l-6.14-3.54a.42.42,0,0,1-.1-.58l.07-.08,6.33-4.58c.42-.31,1,.32.53.64l-6.33,4.58,0-.66L51.89,138c.47.26,0,.94-.47.68Z" style="fill:#e6e6e6"/><path d="M25.89,147.38A27.58,27.58,0,0,1,22,130.18a1.34,1.34,0,0,1,1-1.61l13-2.93a1.34,1.34,0,0,1,1.61,1l3.88,17.2a1.34,1.34,0,0,1-1,1.61l-13,2.93A1.34,1.34,0,0,1,25.89,147.38Z" style="fill:#f2f2f2"/><path d="M25.71,142c-1.93-2.49-2.41-6.57-2.49-11.06a1.26,1.26,0,0,1,1-1.51l11.16-2.52a1.27,1.27,0,0,1,1.51,1l3.45,15.3a1.27,1.27,0,0,1-.95,1.51l-6.92,1.56A5.62,5.62,0,0,1,25.71,142Z" style="fill:#fff"/><circle cx="31.55" cy="141.95" r="1.18" style="fill:#f2f2f2"/><path d="M33,130.77c-.45-.54-1.28-.45-2-.32a7.83,7.83,0,0,0-2.06.59,2.71,2.71,0,0,0-1.45,1.52,3.62,3.62,0,0,0,.38,2.56,17.28,17.28,0,0,0,2.71,4.29l.57.26a10.61,10.61,0,0,0,2.16-7.95A1.82,1.82,0,0,0,33,130.77Z" style="fill:#f2f2f2"/><circle cx="31.55" cy="141.95" r="1.18" style="fill:#e6e6e6"/><path d="M33,130.77c-.45-.54-1.28-.45-2-.32a7.83,7.83,0,0,0-2.06.59,2.71,2.71,0,0,0-1.45,1.52,3.62,3.62,0,0,0,.38,2.56,17.28,17.28,0,0,0,2.71,4.29l.57.26a10.61,10.61,0,0,0,2.16-7.95A1.82,1.82,0,0,0,33,130.77Z" style="fill:#e6e6e6"/><polygon points="195.25 198.77 192.09 198.77 190.59 186.57 195.25 186.57 195.25 198.77" style="fill:#a0616a"/><path d="M185.71,203.43a1.34,1.34,0,0,0,1.34,1.34H193l.18-.38.84-1.74.33,1.74.07.38h2.25l0-.38-.59-7.18-.79-.05-3.38-.2-.83-.05v2.14C190.41,199.72,185.46,202.26,185.71,203.43Z" style="fill:#2f2e41"/><polygon points="182.91 196.31 179.93 197.36 174.47 186.35 178.87 184.81 182.91 196.31" style="fill:#a0616a"/><path d="M175.45,203.87a1.34,1.34,0,0,0,1.7.83l5.62-2,0-.43.22-1.91.89,1.53.19.33,2.12-.74-.16-.35-2.94-6.58-.75.22-3.26.93-.8.23.71,2C178.65,198.82,174.82,202.85,175.45,203.87Z" style="fill:#2f2e41"/><polygon points="180.45 101.15 182.41 110.01 196.74 111.31 198.06 103.59 180.45 101.15" style="fill:#a0616a"/><path d="M197.7,107.38l-16.13-.27-.35,4.7-12.45,37.44-2.21,9.21,6.34,34.17h10.74s-.22-9-.65-9.35-1.32,0-.66-1.91,1.15-2.54.37-3.31-1.74-.12-1.15-2,5.33-26.89,5.33-26.89v44.93h11.05s2.32-2.11,1.25-3.21-1.93-1.32-1.06-2.83,2.74-1.13,1.15-3.05c-1.26-1.53,1.76-43.57,3-60.79a17.87,17.87,0,0,0-4.14-12.83h0Z" style="fill:#2f2e41"/><path d="M189.4,72.37l7.13-.36,3.31,5.23s6.24,1.05,5.8,8.39-7.58,13.79-7.58,13.79l.3-1-.53,1.51.07.86.73.9.07.93-.64,1.48.87,1.41-18.35-1.78-.67-2.44,1-1.31-.55-1.72.82-1.64.43-.36s-4.69-7,.7-12.35l2.16-3.68,2.41-3Z" style="fill:#36f"/><circle cx="191.17" cy="62.52" r="6.76" style="fill:#a0616a"/><path d="M196.31,72.26a3.19,3.19,0,0,1-1.09-1.79,7.1,7.1,0,0,0,.09,2.56c-.36.28-.72.54-1.05.77a7.65,7.65,0,0,0-1-1.82l-.12,2.62a9.94,9.94,0,0,1-1.35.76l.2-.24c1.44-2.13-2.29-6-.85-8.16.41-.6-1.42-5.3-2.81-5.51-1.24-.19-1.19.17-2.39.43a6.14,6.14,0,0,0-.58-1.49,4.87,4.87,0,0,1,0,1.57c-.42,0-.76-.25-1.21-.32-2.9-.45-2.61-3.58-1.8-4.58s3.5-1.29,4.74-1.61c.11-.11.37,0,.48-.15a8.3,8.3,0,0,1,8.41-1.57,5,5,0,0,1,.75.33c2.42,1.27,4.5,3,4.35,5.76-.07,1.28-.36,1.48,0,2.2.09.18-.69,1.85.62,2s.72,1.19,1,1.56C203.86,67,199.49,71.17,196.31,72.26Z" style="fill:#2f2e41"/><path d="M135.06,166.35a27.61,27.61,0,0,1,1.25-17.59,1.34,1.34,0,0,1,1.44-1.24l13.28.94a1.35,1.35,0,0,1,1.25,1.44L151,167.48a1.36,1.36,0,0,1-1.44,1.25l-13.28-.94A1.36,1.36,0,0,1,135.06,166.35Z" style="fill:#f2f2f2"/><path d="M136.46,161.11c-1.14-2.94-.41-7,.8-11.31a1.26,1.26,0,0,1,1.35-1.16l11.41.81a1.26,1.26,0,0,1,1.17,1.34l-1.11,15.65a1.26,1.26,0,0,1-1.35,1.17l-7.07-.5A5.62,5.62,0,0,1,136.46,161.11Z" style="fill:#fff"/><circle cx="142.05" cy="162.78" r="1.18" style="fill:#f2f2f2"/><path d="M146.62,152.49c-.28-.64-1.1-.8-1.79-.88a8.6,8.6,0,0,0-2.15,0,2.76,2.76,0,0,0-1.83,1,3.69,3.69,0,0,0-.37,2.56,17.27,17.27,0,0,0,1.36,4.89l.46.41a10.6,10.6,0,0,0,4.37-7A1.83,1.83,0,0,0,146.62,152.49Z" style="fill:#f2f2f2"/><path d="M206.17,104.31l-.26-20.74a3.34,3.34,0,0,0-3.35-3.29h0a3.35,3.35,0,0,0-3.35,3.35v.17l.94,21.54,0,13.11A2.92,2.92,0,1,0,204,120a4,4,0,0,0-.24-.46Z" style="fill:#a0616a"/><path d="M223.87,205h-9.14l0-.07c-.11-.22-.23-.44-.33-.67a25.19,25.19,0,0,1-1.69-6.36l-.27-1.53a.94.94,0,0,1,.77-1.09.91.91,0,0,1,.72.16l4.17,3c.53.39,1.13.83,1.7,1.31l.18-.81a1,1,0,0,1,1.73-.3l1.07,1.72a6.26,6.26,0,0,1,1.32,3.83v0a3.61,3.61,0,0,1-.15.65Z" style="fill:#f0f0f0"/><path d="M233.05,205.21l-86.86.09a.33.33,0,0,1,0-.66l86.86-.08a.32.32,0,0,1,.32.33A.32.32,0,0,1,233.05,205.21Z" style="fill:#cacaca"/></svg>