<svg xmlns="http://www.w3.org/2000/svg" viewBox="0 0 255 255"><path d="M191.15,104.69c1.93,3.79,3.45,7.71,7.71,7.71a7.71,7.71,0,0,0,0-15.42C194.53,96.92,187.55,97.62,191.15,104.69Z" style="fill:#2f2e41"/><polygon points="197.21 197.43 193.91 198.17 189.51 185.8 194.38 184.72 197.21 197.43" style="fill:#a0616a"/><path d="M198.76,200.44l-10.63,2.37,0-.14a4.24,4.24,0,0,1,3.22-5.06h0l6.49-1.44Z" style="fill:#2f2e41"/><polygon points="207 201.85 203.62 201.85 202.02 188.83 207 188.83 207 201.85" style="fill:#a0616a"/><path d="M207.86,205.12H197V205a4.24,4.24,0,0,1,4.24-4.24h6.65Z" style="fill:#2f2e41"/><path d="M207,195h-4.31a1.26,1.26,0,0,1-1.23-1.08l-3.9-30.21a.42.42,0,0,0-.47-.36.41.41,0,0,0-.34.3l-2.32,8.63L196.54,192a1.25,1.25,0,0,1-.95,1.35l-3.42.78a1.24,1.24,0,0,1-1.46-.83l-5.51-19.11a10.76,10.76,0,0,1-.44-4.33l1.72-17.23h.13l23,1.11-1.34,40.11A1.24,1.24,0,0,1,207,195Z" style="fill:#2f2e41"/><circle cx="198.48" cy="105.78" r="6.76" style="fill:#a0616a"/><path d="M209.09,155.57H209l-22.93-1.23a1.25,1.25,0,0,1-1.17-1.3,1.65,1.65,0,0,1,.06-.32l1.82-5.63a36.52,36.52,0,0,0,1-18.7,11.65,11.65,0,0,1,2.07-9.4,11.51,11.51,0,0,1,8.31-4.59h0l.34,0a11.62,11.62,0,0,1,12.28,10.91,12.17,12.17,0,0,1-.11,2.41l-1.6,10.73,1.27,15.8a1.24,1.24,0,0,1-1.13,1.34Z" style="fill:#ccc"/><path d="M180.88,157a2.74,2.74,0,0,0,.43-4.22l4.41-8.8-5.08.6-3.41,8.26a2.79,2.79,0,0,0,3.65,4.16Z" style="fill:#a0616a"/><path d="M211.18,158.43a2.76,2.76,0,0,1-.08-3.91,2.17,2.17,0,0,1,.36-.32l-2.88-9.41,4.91,1.44,2,8.71a2.78,2.78,0,0,1-4.29,3.49Z" style="fill:#a0616a"/><path d="M210.71,153.5a1.22,1.22,0,0,1-1.23-1.07l-2.3-17.31-3.65-13.52a3.89,3.89,0,0,1,2.75-4.79,3.58,3.58,0,0,1,.92-.13h0a3.92,3.92,0,0,1,4,3.25l5.45,31.93a1.24,1.24,0,0,1-1,1.43l-.16,0-4.67.19Z" style="fill:#ccc"/><path d="M183.33,151.56l-.26,0-4.57-1a1.25,1.25,0,0,1-1-1.47.88.88,0,0,1,.05-.15l10.71-30.58a3.93,3.93,0,0,1,4.43-2.54h0a3.9,3.9,0,0,1,3.09,4.58,3.86,3.86,0,0,1-.29.89L189.66,134l-5.15,16.66A1.22,1.22,0,0,1,183.33,151.56Z" style="fill:#ccc"/><path d="M191.3,102a9.24,9.24,0,0,0,5.26,1.63,5.81,5.81,0,0,1-2.24.92,18.61,18.61,0,0,0,7.58,0,5,5,0,0,0,1.59-.55,2,2,0,0,0,1-1.31,2.72,2.72,0,0,0-1.35-2.39,9.85,9.85,0,0,0-8.32-1.66,4.56,4.56,0,0,0-2.47,1.39,2.25,2.25,0,0,0-.2,2.67Z" style="fill:#2f2e41"/><path d="M156,52.17H39.77a2.42,2.42,0,0,0-2.4,2.41V167.86a2.4,2.4,0,0,0,2.4,2.4H50v-.68H39.77a1.72,1.72,0,0,1-1.71-1.72V54.58a1.72,1.72,0,0,1,1.71-1.72H156a1.72,1.72,0,0,1,1.72,1.72V167.86a1.7,1.7,0,0,1-.28.94,1.84,1.84,0,0,1-.65.59,1.8,1.8,0,0,1-.79.19H145.81v.68H156a2.4,2.4,0,0,0,1.83-.84l0-.06a2.32,2.32,0,0,0,.34-.59,2.15,2.15,0,0,0,.19-.91V54.58A2.42,2.42,0,0,0,156,52.17Z" style="fill:#3f3d56"/><rect x="37.71" y="61.8" width="120.35" height="0.69" style="fill:#3f3d56"/><circle cx="43.55" cy="57.32" r="2.06" style="fill:#3f3d56"/><circle cx="49.47" cy="57.32" r="2.06" style="fill:#3f3d56"/><circle cx="55.39" cy="57.32" r="2.06" style="fill:#3f3d56"/><path d="M127,77.69H68.83a3.58,3.58,0,0,1,0-7.16H127a3.58,3.58,0,0,1,0,7.16ZM68.83,71.08a3,3,0,0,0,0,6.06H127a3,3,0,0,0,0-6.06Z" style="fill:#3f3d56"/><path d="M141.68,127.71H54.1A4.69,4.69,0,0,1,49.41,123V94.93a4.69,4.69,0,0,1,4.69-4.68h87.58a4.68,4.68,0,0,1,4.68,4.68V123A4.68,4.68,0,0,1,141.68,127.71ZM54.1,90.8A4.14,4.14,0,0,0,50,94.93V123a4.13,4.13,0,0,0,4.13,4.13h87.58a4.13,4.13,0,0,0,4.13-4.13V94.93a4.14,4.14,0,0,0-4.13-4.13Z" style="fill:#3f3d56"/><path d="M109.37,107.47H78.8a2.21,2.21,0,0,1,0-4.41h30.57a2.21,2.21,0,1,1,0,4.41Z" style="fill:#36f"/><path d="M137.74,114.9H78.8a2.2,2.2,0,0,1,0-4.4h58.94a2.2,2.2,0,1,1,0,4.4Z" style="fill:#36f"/><circle cx="64.09" cy="108.98" r="8.26" style="fill:#36f"/><path d="M137.74,123.85H130a2.2,2.2,0,1,1,0-4.4h7.71a2.2,2.2,0,0,1,0,4.4Z" style="fill:#fff"/><path d="M137.74,123.85H130a2.2,2.2,0,1,1,0-4.4h7.71a2.2,2.2,0,0,1,0,4.4Z" style="fill:#ccc"/><path d="M141.68,140.93H54.1a4.69,4.69,0,0,0-4.69,4.68V173.7a4.7,4.7,0,0,0,4.69,4.69h87.58a4.69,4.69,0,0,0,4.68-4.69V145.61A4.69,4.69,0,0,0,141.68,140.93Zm4.13,32.77a4.14,4.14,0,0,1-4.13,4.14H54.1A4.15,4.15,0,0,1,50,173.7V145.61a4.15,4.15,0,0,1,4.14-4.13h87.58a4.13,4.13,0,0,1,4.13,4.13Z" style="fill:#3f3d56"/><path d="M109.37,158.14H78.8a2.2,2.2,0,0,1,0-4.4h30.57a2.2,2.2,0,1,1,0,4.4Z" style="fill:#36f"/><path d="M137.74,165.58H78.8a2.21,2.21,0,0,1,0-4.41h58.94a2.21,2.21,0,1,1,0,4.41Z" style="fill:#36f"/><circle cx="64.09" cy="159.66" r="8.26" style="fill:#36f"/><path d="M137.74,174.53H130a2.21,2.21,0,1,1,0-4.41h7.71a2.21,2.21,0,0,1,0,4.41Z" style="fill:#ccc"/><path d="M217.57,205.38H179a.28.28,0,0,1-.27-.28.27.27,0,0,1,.27-.27h38.56a.27.27,0,0,1,.28.27A.28.28,0,0,1,217.57,205.38Z" style="fill:#3f3d56"/></svg>