<svg xmlns="http://www.w3.org/2000/svg" viewBox="0 0 255 255"><ellipse cx="46.71" cy="200.56" rx="32.5" ry="2.48" style="fill:#e6e6e6"/><path d="M57.23,91.83l-13-3.54q5.19-4.91,4.51-9.23h8.45Z" style="fill:#9f616a"/><polygon points="58.61 191.23 54.42 191.82 49.37 145.46 41.32 191.62 37 191.82 37 133.28 63.71 133.28 58.61 191.23" style="fill:#2f2e41"/><path d="M39.17,200.58h0a2.94,2.94,0,0,0,2.92-2.16l.31-4.56-.62-3.24a3.55,3.55,0,0,0-4.93,0l-.53,6.78A3,3,0,0,0,39,200.57Z" style="fill:#2f2e41"/><path d="M56.46,200.58h0a2.94,2.94,0,0,0,2.92-2.16l.31-4.56-.62-3.24a3.55,3.55,0,0,0-4.93,0l-.53,6.78a3,3,0,0,0,2.7,3.17Z" style="fill:#2f2e41"/><circle cx="55.46" cy="77.68" r="7.47" style="fill:#9f616a"/><path d="M64.89,134.26H36.41c3.69-17.11,3.68-30.89.74-42A3,3,0,0,1,39,88.68l7.66-2.94c2.3,3,5.55,4.27,10.61,2.35l4,.83a4.12,4.12,0,0,1,3.29,4.31c-.3,4.36-.18,8.75-.43,12.54C63.32,117.52,63,126.67,64.89,134.26Z" style="fill:#e6e6e6"/><path d="M51.53,67.86S55.86,63,61,67.66l1.38.4-1,.78s5.1,2.36,4.71,7.27a2.21,2.21,0,0,0-1.18,0c-.39.2-.59,2.36-.59,2.36a13.26,13.26,0,0,0-.78-1.77c-.2-.2-3,2.16-7.47-1.37,0,0-1.37,3.53-2.94,3.14a3.71,3.71,0,0,0-4.72,2.36S43.09,69.43,51.53,67.86Z" style="fill:#2f2e41"/><path d="M66.27,129.94l-2.52,3.38a3.3,3.3,0,0,0,.67,4.63l0,0h0a3.3,3.3,0,0,0,5.21-2.16l.72-4.51,1.38-19.45-1-9.82L64.5,104.4l1.77,8.45Z" style="fill:#9f616a"/><path d="M63.71,106.76l7.67-3.54-.4-2.78a11.44,11.44,0,0,0-7.29-10.66l-2.33-.9Z" style="fill:#e6e6e6"/><path d="M35.82,129.15l2.52,3.38a3.33,3.33,0,0,1-.67,4.64l0,0h0a3.31,3.31,0,0,1-4.63-.75,3.45,3.45,0,0,1-.59-1.41l-.72-4.51-1.37-19.45,1-9.82,6.29,2.35-1.77,8.45Z" style="fill:#9f616a"/><path d="M38.37,106l-7.66-3.53.39-2.79A11.42,11.42,0,0,1,38.4,89l2.33-.91Z" style="fill:#e6e6e6"/><path d="M239,181.14H107.85a2.07,2.07,0,0,1-2.07-2.07v-57a2.08,2.08,0,0,1,2.07-2.07H239a2.09,2.09,0,0,1,2.07,2.07v57A2.08,2.08,0,0,1,239,181.14Zm-131.1-60.32a1.24,1.24,0,0,0-1.24,1.24v57a1.23,1.23,0,0,0,1.24,1.24H239a1.24,1.24,0,0,0,1.24-1.24v-57a1.25,1.25,0,0,0-1.24-1.24Z" style="fill:#e6e6e6"/><path d="M113.22,127a1.24,1.24,0,1,0,0,2.48h17.35a1.24,1.24,0,1,0,0-2.48Z" style="fill:#e6e6e6"/><path d="M232,135.64v23H115v-12.1c.81-.52,1.62-1,2.45-1.54,3.51-2.15,7.27-4.16,11.37-4.9a17,17,0,0,1,5.87-.08,33.77,33.77,0,0,1,6,1.76,41.47,41.47,0,0,0,5.86,1.84,17.43,17.43,0,0,0,5.94.12c3.76-.57,7.3-2.08,10.82-3.45s7.19-2.67,11-2.84a32.66,32.66,0,0,1,11.11,1.83c7.33,2.26,14.8,5.61,22.55,3.31s15.12-9.06,23.84-7.06A.32.32,0,0,1,232,135.64Z" style="fill:#e6e6e6"/><path d="M232,136a.35.35,0,0,1-.4.17,13.54,13.54,0,0,0-3.17-.32c-8.59.15-15.18,7.06-23.58,8.09-7.56.93-14.68-2.75-21.79-4.67a25.8,25.8,0,0,0-11.31-.85c-3.78.67-7.32,2.21-10.88,3.58s-7,2.55-10.69,2.61c-4.08.07-7.75-1.61-11.53-2.89a20.33,20.33,0,0,0-6.07-1.25,18.41,18.41,0,0,0-6,.93,48.22,48.22,0,0,0-11.16,5.82.3.3,0,0,1-.21.05.38.38,0,0,1-.32-.42.37.37,0,0,1,.16-.27l.16-.1c.81-.52,1.62-1,2.45-1.54,3.5-2.15,7.25-4.16,11.34-4.9a17,17,0,0,1,5.86-.08,33.42,33.42,0,0,1,6,1.76,41.34,41.34,0,0,0,5.85,1.84,17.31,17.31,0,0,0,5.92.12c3.76-.57,7.29-2.08,10.8-3.45s7.18-2.67,11-2.84a32.51,32.51,0,0,1,11.09,1.83c7.31,2.26,14.77,5.61,22.5,3.31s15.09-9.06,23.79-7.06a.32.32,0,0,1,.21.13A.41.41,0,0,1,232,136Z" style="fill:#36f"/><circle cx="131.12" cy="140.3" r="1.71" style="fill:#36f"/><circle cx="174.36" cy="138.1" r="1.71" style="fill:#36f"/><circle cx="227.12" cy="135.9" r="1.71" style="fill:#36f"/><path d="M130.16,168.33a1.24,1.24,0,0,0,0,2.48h17.35a1.24,1.24,0,1,0,0-2.48Z" style="fill:#e6e6e6"/><circle cx="119" cy="169.43" r="4.68" style="fill:#36f"/><path d="M172,168.33a1.24,1.24,0,1,0,0,2.48h17.35a1.24,1.24,0,1,0,0-2.48Z" style="fill:#e6e6e6"/><circle cx="160.87" cy="169.43" r="4.68" style="fill:#36f"/><path d="M213.89,168.33a1.24,1.24,0,1,0,0,2.48h17.35a1.24,1.24,0,0,0,0-2.48Z" style="fill:#e6e6e6"/><circle cx="202.73" cy="169.43" r="4.68" style="fill:#36f"/><path d="M230,104.6H165.3c-1.26,0-2.29-.73-2.29-1.62V88.92c0-.9,1-1.63,2.29-1.63H230c1.26,0,2.28.73,2.28,1.63V103C232.26,103.87,231.24,104.6,230,104.6ZM165.3,87.94c-.76,0-1.37.44-1.37,1V103c0,.53.61,1,1.37,1H230c.75,0,1.37-.44,1.37-1V88.92c0-.54-.62-1-1.37-1Z" style="fill:#e6e6e6"/><path d="M179.92,95.28a1.38,1.38,0,0,0-1.38,1.38v9.64a1.38,1.38,0,0,0,1.38,1.38h49.3a1.38,1.38,0,0,0,1.38-1.38V96.66a1.38,1.38,0,0,0-1.38-1.38Z" style="fill:#36f"/><circle cx="186.81" cy="101.62" r="3.03" style="fill:#fff"/><path d="M200.61,100.3a1.24,1.24,0,0,0,0,2.48H218a1.24,1.24,0,0,0,0-2.48Z" style="fill:#fff"/><path d="M181.5,71.83H116.82c-1.26,0-2.28-.73-2.28-1.63V56.14c0-.89,1-1.62,2.28-1.62H181.5c1.26,0,2.28.73,2.29,1.62V70.2C183.78,71.1,182.76,71.82,181.5,71.83ZM116.82,55.17c-.75,0-1.37.43-1.37,1V70.2c0,.54.62,1,1.37,1H181.5c.76,0,1.37-.44,1.37-1V56.14c0-.54-.61-1-1.37-1Z" style="fill:#e6e6e6"/><path d="M131.45,62.51a1.37,1.37,0,0,0-1.38,1.37v9.64a1.38,1.38,0,0,0,1.38,1.38h49.3a1.37,1.37,0,0,0,1.37-1.38V63.88a1.37,1.37,0,0,0-1.37-1.37Z" style="fill:#36f"/><circle cx="138.33" cy="68.84" r="3.03" style="fill:#fff"/><path d="M152.14,67.53a1.24,1.24,0,0,0,0,2.48h17.35a1.24,1.24,0,0,0,0-2.48Z" style="fill:#fff"/></svg>